<svg width="24" height="24" viewBox="0 0 24 24" fill="none" xmlns="http://www.w3.org/2000/svg">
<path d="M23 5.70178V18.3022C23 18.3854 22.9828 18.4687 22.9527 18.548C22.8496 18.7938 22.609 18.9683 22.3254 19C22.2996 19.004 22.2695 19.004 22.2438 19.004H1.76056C1.73478 19.004 1.7047 19.004 1.67892 19C1.39533 18.9683 1.1547 18.7938 1.05158 18.548C1.0172 18.4687 1.00001 18.3854 1.00431 18.3022V5.70178C1.00431 5.61852 1.0215 5.53526 1.05158 5.45596C1.1547 5.21014 1.39533 5.03568 1.67892 5.00396C1.7047 5 1.73048 5 1.76056 5H22.2438C22.2695 5 22.2996 5 22.3254 5.00396C22.609 5.03568 22.8496 5.21014 22.9527 5.45596C22.9828 5.53129 23 5.61456 23 5.70178Z" fill="#285680"/>
<path d="M23 5.70178C23 5.61852 22.9828 5.53526 22.9528 5.45596C22.8496 5.21014 22.609 5.03568 22.3254 5.00396C22.2953 5 22.2696 5 22.2395 5H20.9934L14.2774 9.27811V5H9.72269V9.27811L3.00238 5H1.75629C1.73051 5 1.70043 5 1.67465 5.00396C1.39105 5.03568 1.15043 5.21014 1.0473 5.45596C1.01293 5.53526 0.995742 5.61852 1.00004 5.70178V6.27669L6.69769 9.90456H1.00004V14.1034H6.6934L1.00004 17.7273V18.3022C1.00004 18.3854 1.01723 18.4687 1.0473 18.548C1.15043 18.7938 1.39105 18.9683 1.67465 19C1.70043 19.004 1.73051 19.004 1.75629 19.004H3.00238L9.72269 14.7219V19H14.2774V14.7219L20.9977 19H22.2438C22.2696 19 22.2996 19 22.3254 18.996C22.609 18.9643 22.8496 18.7899 22.9528 18.544C22.9871 18.4647 23.0043 18.3815 23 18.2982V17.7273L17.3024 14.0994H23V9.90059H17.3067L23 6.27273V5.70178Z" fill="white"/>
<path d="M22.9484 18.5441C22.8453 18.79 22.6047 18.9644 22.3211 18.9961L14.6297 14.0995H15.9703L22.9484 18.5441Z" fill="#C03A2B"/>
<path d="M9.37032 9.90054H8.02969L1.04727 5.4559C1.1504 5.21008 1.39102 5.03563 1.67462 5.00391L9.37032 9.90054Z" fill="#C03A2B"/>
<path d="M22.9484 5.4559L15.9617 9.90054H14.6297L22.3211 5.00391C22.609 5.03563 22.8496 5.21008 22.9484 5.4559Z" fill="#C03A2B"/>
<path d="M9.36602 14.0995L1.67462 18.9961C1.39102 18.9644 1.1504 18.79 1.04727 18.5441L8.03399 14.0995H9.36602Z" fill="#C03A2B"/>
<path d="M1 11.3002H23V12.6998H1V11.3002Z" fill="#C03A2B"/>
<path d="M11.2395 5H12.7563V19H11.2395V5Z" fill="#C03A2B"/>
</svg>
